<?xml version="1.0" standalone="no"?>
<!DOCTYPE svg PUBLIC "-//W3C//DTD SVG 20010904//EN"
 "http://www.w3.org/TR/2001/REC-SVG-20010904/DTD/svg10.dtd">
<svg version="1.0" xmlns="http://www.w3.org/2000/svg"
 width="520.000000pt" height="553.000000pt" viewBox="0 0 520.000000 553.000000"
 preserveAspectRatio="xMidYMid meet">

<g transform="translate(0.000000,553.000000) scale(0.100000,-0.100000)"
fill="#000000" stroke="none">
<path d="M2007 5524 c-3 -3 -23 -12 -44 -20 -38 -15 -38 -15 -5 -10 32 5 88
36 66 36 -6 0 -13 -3 -17 -6z"/>
<path d="M4490 5527 c0 -5 20 -32 43 -60 59 -70 100 -132 153 -230 24 -45 44
-77 44 -72 0 43 -238 402 -240 362z"/>
<path d="M1802 5467 c-23 -29 -52 -63 -66 -76 -14 -13 -23 -28 -20 -32 3 -5
-2 -6 -10 -3 -12 5 -5 18 34 62 28 31 50 60 50 65 0 5 -10 -3 -22 -19 -12 -16
-47 -55 -77 -86 -71 -71 -102 -118 -47 -70 64 56 63 35 -1 -30 -63 -65 -93
-121 -158 -298 -16 -41 -48 -115 -72 -164 -24 -48 -42 -90 -40 -93 3 -2 8 5
12 18 6 17 9 19 17 8 6 -10 7 -6 2 11 -3 14 -3 22 2 17 8 -7 47 80 109 247 30
79 85 175 123 213 11 10 11 13 1 13 -8 0 12 26 42 58 70 71 182 212 170 212
-5 0 -27 -24 -49 -53z m-191 -244 c-5 -10 -17 -27 -26 -38 -16 -19 -16 -19 -4
5 13 27 29 50 36 50 2 0 -1 -8 -6 -17z"/>
<path d="M2130 5499 c0 -6 -7 -8 -16 -5 -8 3 -12 2 -9 -4 4 -6 -7 -10 -25 -10
-20 0 -29 -4 -24 -11 3 -6 17 -9 30 -6 13 2 24 1 24 -3 0 -9 -45 -27 -80 -33
-22 -4 -21 -4 5 -5 17 -1 50 8 75 18 25 10 39 19 32 19 -8 1 -10 9 -6 26 3 14
3 25 0 25 -3 0 -6 -5 -6 -11z"/>
<path d="M3149 5478 c-16 -18 -29 -37 -29 -43 1 -5 14 7 31 28 17 20 40 37 50
37 24 0 53 -62 45 -96 -5 -20 -48 -67 -101 -109 -30 -24 5 -5 43 23 17 13 32
22 32 19 0 -22 -28 -58 -53 -68 -17 -7 -25 -15 -19 -17 27 -9 93 63 78 86 -2
4 4 18 14 31 l18 24 7 -44 c8 -51 20 -69 46 -69 28 0 13 -24 -27 -46 -20 -10
-45 -35 -56 -54 l-21 -35 24 27 c13 14 43 38 67 52 23 15 42 33 42 41 0 8 5
15 11 15 5 0 7 -5 3 -12 -4 -6 3 -4 17 5 13 9 33 17 44 17 16 0 17 2 5 10 -12
8 -10 10 10 11 23 0 23 1 5 9 -14 5 -26 2 -42 -13 -27 -24 -31 -13 -6 17 10
12 4 8 -14 -7 -33 -31 -70 -33 -84 -7 -4 8 -15 46 -23 84 -28 120 -61 144
-117 84z"/>
<path d="M1975 5460 c-9 -10 -49 -31 -88 -46 -40 -15 -67 -29 -61 -31 5 -2 38
8 72 21 35 14 68 24 75 22 7 -1 8 -1 4 2 -5 2 0 13 9 23 9 11 15 21 12 24 -3
3 -13 -4 -23 -15z"/>
<path d="M2390 5445 c-39 -40 -57 -44 -62 -13 -3 21 -4 21 -18 3 -13 -17 -13
-18 0 -11 8 4 4 -1 -9 -12 l-24 -19 47 7 c26 4 52 12 58 18 7 7 23 12 38 12
14 0 32 5 40 10 11 7 5 8 -20 3 -32 -6 -34 -5 -21 11 27 32 4 25 -29 -9z"/>
<path d="M2486 5445 c8 -19 -12 -44 -46 -57 -14 -6 -69 -14 -122 -19 -54 -4
-105 -13 -115 -19 -16 -11 -16 -11 2 -5 11 4 68 10 126 15 110 8 142 18 159
50 13 24 13 50 0 50 -5 0 -7 -7 -4 -15z"/>
<path d="M3046 5453 c5 -5 12 -12 16 -18 4 -6 8 -2 8 8 0 9 -7 17 -17 17 -9 0
-12 -3 -7 -7z"/>
<path d="M2621 5439 c-1 -22 -40 -55 -75 -63 -15 -4 -26 -9 -23 -12 3 -4 22
-1 42 6 38 12 70 51 62 72 -4 9 -6 8 -6 -3z"/>
<path d="M3625 5419 c-16 -17 -52 -44 -80 -60 -54 -31 -55 -40 -2 -13 18 9 46
30 64 46 17 17 36 27 42 24 7 -4 11 1 11 13 0 26 1 26 -35 -10z"/>
<path d="M4029 5423 c-13 -16 -12 -17 4 -4 9 7 17 15 17 17 0 8 -8 3 -21 -13z"/>
<path d="M2716 5412 c-7 -22 -9 -22 -21 -5 -12 16 -13 15 -8 -8 4 -22 -1 -28
-34 -42 -32 -13 -33 -15 -8 -10 27 6 29 5 16 -10 -7 -10 -23 -18 -35 -18 -16
-1 -17 -2 -4 -6 9 -2 25 0 36 6 25 13 75 87 70 103 -3 8 -8 4 -12 -10z"/>
<path d="M3407 5408 c-4 -14 -19 -41 -34 -60 -23 -27 -23 -30 -4 -13 27 24 54
72 48 88 -2 7 -7 0 -10 -15z"/>
<path d="M3512 5405 c0 -16 2 -22 5 -12 2 9 2 23 0 30 -3 6 -5 -1 -5 -18z"/>
<path d="M3812 5363 l-51 -57 -28 24 c-20 18 -23 19 -10 4 24 -29 22 -39 -16
-68 -38 -29 -48 -31 -64 -15 -9 9 -8 19 3 41 9 17 13 32 11 35 -3 2 -8 -5 -12
-16 -3 -12 -10 -21 -15 -21 -4 0 -13 -14 -19 -30 -10 -29 -36 -49 -48 -37 -3
3 5 21 17 39 l22 33 -29 -33 c-20 -24 -33 -31 -46 -26 -10 4 -16 13 -13 20 15
37 16 46 2 22 -11 -19 -22 -25 -34 -22 -14 5 -14 4 -2 -4 12 -9 11 -14 -5 -32
-11 -12 -41 -35 -67 -52 -26 -17 -46 -33 -43 -36 6 -6 108 67 118 84 9 16 47
19 47 4 0 -12 -98 -90 -113 -90 -5 0 -8 -3 -5 -6 10 -9 60 22 100 61 21 20 42
34 48 30 7 -5 5 -12 -7 -21 -10 -7 -14 -14 -9 -14 5 0 1 -10 -10 -23 -10 -13
-3 -6 17 15 38 39 64 43 72 10 4 -15 5 -15 6 1 1 11 9 17 25 17 13 0 42 7 65
15 46 16 47 13 29 -46 -11 -38 -12 -39 -32 -22 -12 10 -15 11 -8 3 19 -22 14
-51 -15 -84 l-28 -31 29 25 28 25 -7 -35 c-4 -19 -14 -41 -23 -47 -9 -8 -11
-13 -4 -13 7 0 12 -15 13 -32 1 -19 9 6 19 57 22 114 24 118 63 137 37 18 190
148 183 155 -3 3 -23 -12 -44 -32 -57 -52 -103 -85 -121 -85 -13 0 -13 -2 -3
-9 11 -7 10 -10 -3 -15 -9 -3 -20 -6 -25 -6 -13 0 2 84 16 93 8 4 14 18 14 30
0 13 7 32 15 43 8 12 11 24 8 28 -4 3 6 20 22 36 16 17 26 30 23 30 -3 0 -28
-26 -56 -57z m-4 -33 c-7 -11 -16 -20 -20 -20 -4 0 -7 -9 -5 -20 2 -24 -52
-63 -71 -51 -10 6 -7 12 12 25 15 9 26 12 26 6 0 -6 5 -8 10 -5 6 4 8 11 4 17
-3 5 6 23 22 39 33 34 39 37 22 9z m-163 -90 c3 -5 21 -10 38 -11 31 -1 31 -1
7 -9 -42 -13 -60 -11 -61 8 0 10 -3 12 -6 5 -2 -7 -9 -13 -15 -13 -6 0 -6 6 2
15 14 17 26 19 35 5z"/>
<path d="M3725 5250 c-3 -6 1 -7 9 -4 18 7 21 14 7 14 -6 0 -13 -4 -16 -10z"/>
<path d="M3081 5390 c-21 -12 -46 -17 -65 -15 -27 4 -28 4 -6 -3 l25 -8 -30
-11 c-16 -6 -23 -12 -15 -12 8 0 47 15 85 34 39 19 63 35 55 34 -8 0 -30 -9
-49 -19z"/>
<path d="M2793 5366 c-12 -19 -33 -36 -45 -39 -22 -4 -22 -4 -1 -6 20 -1 73
49 73 70 0 14 -4 11 -27 -25z"/>
<path d="M2912 5371 c-7 -16 -21 -32 -30 -34 -16 -4 -16 -5 0 -6 19 -1 52 41
46 59 -1 5 -9 -3 -16 -19z"/>
<path d="M3999 5383 c-13 -16 -12 -17 4 -4 9 7 17 15 17 17 0 8 -8 3 -21 -13z"/>
<path d="M3477 5354 c-29 -16 -28 -35 1 -33 14 0 13 2 -3 9 -11 5 -15 9 -9 9
10 1 54 30 44 30 -3 0 -18 -7 -33 -15z"/>
<path d="M3661 5354 c0 -11 3 -14 6 -6 3 7 2 16 -1 19 -3 4 -6 -2 -5 -13z"/>
<path d="M3969 5343 c-13 -16 -12 -17 4 -4 9 7 17 15 17 17 0 8 -8 3 -21 -13z"/>
<path d="M4189 5333 c-13 -16 -12 -17 4 -4 9 7 17 15 17 17 0 8 -8 3 -21 -13z"/>
<path d="M4625 5246 c107 -152 153 -306 164 -543 4 -89 10 -166 15 -170 4 -4
5 67 3 157 -5 157 -6 170 -42 280 -21 63 -48 138 -62 165 -30 61 -105 175
-115 175 -4 0 13 -29 37 -64z"/>
<path d="M2488 5293 c23 -2 61 -2 85 0 23 2 4 4 -43 4 -47 0 -66 -2 -42 -4z"/>
<path d="M2628 5283 c6 -2 18 -2 25 0 6 3 1 5 -13 5 -14 0 -19 -2 -12 -5z"/>
<path d="M2927 5254 c-9 -19 -13 -33 -7 -29 14 9 42 65 33 65 -5 0 -16 -16
-26 -36z"/>
<path d="M3448 5283 c7 -3 16 -2 19 1 4 3 -2 6 -13 5 -11 0 -14 -3 -6 -6z"/>
<path d="M3016 5261 c-10 -11 -32 -26 -49 -35 -21 -10 -26 -16 -14 -16 10 0
34 12 53 26 39 30 43 23 14 -23 l-19 -32 27 11 c31 13 72 54 72 71 0 7 -6 3
-12 -8 -13 -23 -38 -44 -52 -45 -6 0 -5 5 2 12 14 14 16 44 3 52 -4 3 -16 -3
-25 -13z"/>
<path d="M2885 5250 c-3 -5 -1 -10 4 -10 6 0 11 5 11 10 0 6 -2 10 -4 10 -3 0
-8 -4 -11 -10z"/>
<path d="M3961 5213 c-44 -62 -113 -123 -119 -105 -3 9 -8 6 -16 -10 -6 -12
-27 -29 -46 -36 l-35 -13 34 6 c30 4 32 3 20 -12 -8 -9 -27 -22 -44 -30 l-30
-14 30 6 c17 3 37 15 45 27 8 11 26 30 39 42 81 71 163 164 159 178 -2 6 -19
-12 -37 -39z"/>
<path d="M4383 5248 c-15 -20 -25 -38 -20 -38 3 0 12 11 21 25 17 26 16 35 -1
13z"/>
<path d="M2765 5221 c83 -5 106 -10 135 -30 l35 -24 -28 29 c-27 28 -30 29
-135 30 l-107 2 100 -7z"/>
<path d="M4504 5150 c-17 -33 -27 -57 -22 -54 10 6 61 105 56 109 -2 2 -17
-23 -34 -55z"/>
<path d="M3981 5184 c0 -11 3 -14 6 -6 3 7 2 16 -1 19 -3 4 -6 -2 -5 -13z"/>
<path d="M4339 5183 c-13 -16 -12 -17 4 -4 9 7 17 15 17 17 0 8 -8 3 -21 -13z"/>
<path d="M3171 5183 c-2 -22 -44 -53 -91 -68 -28 -8 -36 -14 -22 -14 51 -2
130 52 119 81 -4 9 -6 9 -6 1z"/>
<path d="M4049 5173 c-13 -16 -12 -17 4 -4 16 13 21 21 13 21 -2 0 -10 -8 -17
-17z"/>
<path d="M3632 5140 c0 -14 2 -19 5 -12 2 6 2 18 0 25 -3 6 -5 1 -5 -13z"/>
<path d="M3964 5128 c-5 -18 -23 -42 -40 -53 -16 -11 -29 -24 -29 -28 0 -5
-22 -32 -50 -60 l-50 -50 49 42 c27 23 56 51 63 61 8 11 20 20 26 20 16 0 33
28 42 68 9 42 1 42 -11 0z"/>
<path d="M4300 5128 c-15 -21 -17 -28 -6 -19 16 13 41 51 33 51 -2 0 -14 -15
-27 -32z"/>
<path d="M4007 5143 c-4 -3 -6 -20 -6 -37 2 -27 2 -28 6 -6 3 14 10 31 15 38
11 12 -3 18 -15 5z"/>
<path d="M3533 5118 c-11 -13 -26 -34 -32 -48 -10 -21 -9 -22 1 -6 53 76 68
83 68 30 0 -76 -98 -205 -195 -257 -16 -9 -25 -16 -19 -17 5 0 32 14 60 31
l49 31 -35 -37 c-24 -26 -28 -34 -13 -26 11 6 36 29 55 51 46 55 65 43 42 -26
-47 -137 -42 -129 -101 -158 l-55 -27 -55 21 c-31 11 -58 19 -60 16 -2 -2 18
-11 45 -20 51 -17 142 -72 142 -85 0 -4 -23 -18 -51 -31 -28 -13 -53 -28 -55
-32 -8 -12 42 9 94 39 25 15 42 22 38 15 -21 -34 54 9 93 53 17 20 31 39 31
43 0 4 7 16 15 26 15 19 15 19 40 -4 30 -29 33 -15 4 16 -21 22 -21 24 -5 51
l17 28 -25 -27 c-14 -16 -28 -24 -31 -18 -3 5 -20 19 -38 30 -28 19 -27 17 7
-13 l38 -34 -27 -43 c-27 -43 -83 -100 -97 -100 -17 0 -7 17 17 28 33 15 32
32 -2 32 -19 0 -24 -3 -15 -9 10 -6 10 -11 -3 -21 -14 -12 -18 -11 -26 1 -7
11 -9 11 -9 -4 0 -16 -5 -14 -36 9 l-36 28 24 12 c13 6 34 15 47 19 22 7 23 5
18 -21 -5 -21 -1 -17 13 14 11 23 26 45 35 48 9 4 21 16 27 28 10 19 9 19 -16
-3 -30 -28 -32 -24 -11 26 8 19 15 41 15 49 0 7 4 24 10 38 l9 25 44 -19 c24
-11 68 -26 98 -33 48 -13 54 -17 57 -42 3 -21 -3 -34 -20 -47 -22 -18 -22 -19
-1 -9 30 15 31 15 36 -16 4 -25 4 -24 6 6 0 19 9 44 18 55 10 12 11 15 3 9
-20 -18 -28 -16 -32 10 -2 15 4 25 22 34 24 11 24 11 -7 6 -20 -3 -33 -1 -33
5 0 5 -7 13 -16 16 -14 5 -15 4 -4 -9 17 -20 6 -19 -71 6 -94 31 -100 35 -94
67 5 25 5 25 -4 5 -6 -13 -15 -23 -21 -23 -14 0 -13 6 6 42 11 22 18 27 24 18
6 -10 9 -9 14 1 3 8 3 -2 0 -21 -3 -24 -2 -30 5 -20 5 8 10 49 11 90 3 107 2
120 -13 120 -8 0 -23 -10 -34 -22z"/>
<path d="M3454 5097 c-22 -18 -51 -40 -65 -50 -23 -17 -23 -17 7 -1 30 16 114
83 104 83 -3 0 -23 -14 -46 -32z"/>
<path d="M3136 5090 c-9 -16 -33 -42 -52 -57 l-36 -27 -58 32 c-82 46 -88 40
-7 -8 l68 -40 22 20 c11 11 24 20 29 20 9 0 61 80 56 86 -2 2 -12 -10 -22 -26z"/>
<path d="M2850 5090 c8 -5 20 -10 25 -10 6 0 3 5 -5 10 -8 5 -19 10 -25 10 -5
0 -3 -5 5 -10z"/>
<path d="M4159 4967 c-107 -112 -193 -178 -222 -169 -5 1 -5 -8 -1 -20 4 -13
11 -41 15 -63 7 -34 7 -31 4 15 l-5 55 43 23 c45 24 174 144 246 230 23 29 41
52 39 51 -1 0 -55 -55 -119 -122z"/>
<path d="M3971 5008 c-17 -42 -26 -56 -32 -47 -7 12 -9 11 -9 -1 0 -19 -49
-80 -50 -62 0 7 7 27 16 43 8 17 14 33 11 35 -2 3 -16 -23 -30 -56 -15 -33
-39 -72 -54 -85 l-28 -25 27 13 c15 6 34 26 43 42 8 17 15 26 15 21 0 -5 10
-1 21 10 21 19 22 19 16 -1 -24 -87 -36 -155 -30 -170 4 -13 3 -16 -5 -11 -7
4 -12 3 -12 -3 0 -5 -3 -18 -6 -28 -5 -17 -5 -17 9 0 11 14 16 15 20 5 5 -12
11 25 8 45 -3 18 39 165 60 212 13 28 23 55 24 60 1 6 5 20 9 33 17 51 -1 27
-23 -30z m-34 -90 c-3 -8 -6 -5 -6 6 -1 11 2 17 5 13 3 -3 4 -12 1 -19z"/>
<path d="M4435 5034 c-9 -15 -12 -23 -6 -20 11 7 35 46 28 46 -3 0 -12 -12
-22 -26z"/>
<path d="M3369 4979 c-37 -38 -59 -64 -50 -60 27 15 143 142 119 130 -2 -1
-33 -32 -69 -70z"/>
<path d="M3848 5043 c6 -2 18 -2 25 0 6 3 1 5 -13 5 -14 0 -19 -2 -12 -5z"/>
<path d="M3926 5035 c-9 -26 -7 -32 5 -12 6 10 9 21 6 23 -2 3 -7 -2 -11 -11z"/>
<path d="M3249 5003 l-24 -28 28 24 c25 23 32 31 24 31 -2 0 -14 -12 -28 -27z"/>
<path d="M4369 4943 c-23 -32 -36 -53 -28 -46 17 14 83 103 76 103 -3 0 -24
-26 -48 -57z"/>
<path d="M4670 4940 c-6 -11 -8 -20 -6 -20 3 0 10 9 16 20 6 11 8 20 6 20 -3
0 -10 -9 -16 -20z"/>
<path d="M4624 4873 c-15 -20 -23 -33 -16 -29 13 8 56 66 49 66 -3 0 -17 -17
-33 -37z"/>
<path d="M3130 4896 c0 -3 26 -10 58 -16 31 -7 71 -19 87 -28 27 -14 29 -14
17 1 -15 17 -162 56 -162 43z"/>
<path d="M4264 4813 c-87 -100 -118 -141 -59 -78 58 62 119 135 113 135 -2 0
-26 -26 -54 -57z"/>
<path d="M4518 4738 c-42 -51 -95 -111 -117 -133 -23 -21 -41 -42 -41 -46 0
-9 101 98 166 176 64 78 77 95 72 95 -2 0 -38 -42 -80 -92z"/>
<path d="M4355 4794 c-9 -15 -12 -23 -6 -20 11 7 35 46 28 46 -3 0 -12 -12
-22 -26z"/>
<path d="M3433 4769 c-29 -22 -53 -42 -53 -45 0 -7 88 56 102 73 16 20 7 15
-49 -28z"/>
<path d="M4652 4719 c-12 -21 -21 -39 -18 -39 7 0 49 71 44 75 -2 2 -14 -14
-26 -36z"/>
<path d="M1386 4715 c-9 -26 -7 -32 5 -12 6 10 9 21 6 23 -2 3 -7 -2 -11 -11z"/>
<path d="M4290 4698 c-13 -18 -53 -66 -88 -105 -34 -40 -60 -73 -58 -73 7 0
156 171 167 192 15 28 5 21 -21 -14z"/>
<path d="M1324 4680 c2 -19 0 -47 -5 -62 -5 -18 -4 -28 3 -28 16 0 3 -49 -47
-175 -25 -63 -45 -125 -45 -137 0 -38 -68 -257 -91 -297 -63 -104 -120 -183
-180 -246 -64 -69 -124 -160 -114 -175 3 -4 -2 -14 -11 -21 -8 -7 -22 -25 -29
-40 -13 -24 -12 -31 10 -75 29 -58 105 -145 105 -120 0 9 8 16 18 16 10 0 30
19 45 42 28 43 34 72 18 82 -10 7 -21 -16 -21 -44 0 -10 -13 -28 -30 -40 -16
-12 -30 -18 -30 -14 0 3 -6 1 -14 -5 -11 -9 -21 -1 -49 41 -19 29 -38 63 -42
75 -7 24 5 43 166 257 75 99 131 187 203 317 37 69 43 85 26 74 -12 -7 -9 6
23 125 11 41 21 82 22 90 2 16 9 37 30 85 7 17 18 41 24 55 9 21 10 16 5 -25
-4 -27 -4 -47 0 -44 3 3 10 43 15 90 5 46 12 93 17 103 5 14 4 17 -4 12 -18
-11 -14 20 8 64 24 47 26 67 3 25 l-17 -30 -8 30 c-7 29 -7 29 -4 -5z m-400
-1020 c-38 -53 -53 -65 -33 -27 21 39 50 77 60 77 5 0 -7 -22 -27 -50z"/>
<path d="M3986 4658 c-12 -27 -15 -29 -19 -12 -5 18 -6 18 -5 -1 1 -28 -19
-80 -55 -140 -75 -127 -106 -171 -131 -186 -43 -26 -46 -25 -46 22 0 35 3 40
17 35 16 -6 16 -5 0 12 -17 19 -16 21 35 58 29 22 62 44 73 51 11 7 15 12 9
13 -6 0 -28 -13 -49 -30 -45 -36 -48 -36 -77 -7 -62 61 -73 78 -58 88 12 9 11
10 -4 5 -14 -5 -31 4 -60 31 -23 22 -17 13 15 -22 31 -33 61 -70 68 -83 10
-20 9 -23 -11 -31 -14 -5 -28 -5 -35 1 -7 5 -18 8 -25 5 -8 -4 -7 -6 5 -6 35
-2 16 -20 -28 -27 -62 -9 -142 -1 -189 20 l-39 16 34 38 34 37 -39 -35 c-22
-19 -46 -40 -53 -47 -7 -6 -29 -21 -48 -33 -20 -12 -34 -24 -31 -27 3 -3 25
10 51 28 l45 33 38 -19 c45 -22 178 -32 222 -17 23 9 36 8 51 -1 27 -17 24
-24 -12 -32 -17 -4 -28 -9 -25 -12 3 -3 18 -1 34 5 29 10 30 9 36 -27 3 -23
-2 -60 -14 -101 -11 -36 -20 -75 -20 -87 0 -20 -4 -22 -32 -16 -18 3 -46 12
-62 20 -26 13 -28 18 -22 51 3 21 6 44 6 53 0 9 9 19 19 22 15 4 21 -4 31 -39
7 -24 19 -49 28 -56 13 -11 14 -10 4 7 -17 32 -32 86 -26 96 3 5 1 9 -5 9 -6
0 -18 12 -26 28 -15 25 -14 15 1 -23 5 -11 -1 -15 -24 -15 -64 0 -91 11 -94
39 -2 19 -9 27 -28 29 -14 2 -31 11 -37 20 -20 25 -15 0 7 -35 18 -30 18 -33
2 -33 -9 0 -35 5 -57 11 l-39 11 27 24 c48 41 29 37 -24 -5 -29 -23 -58 -41
-66 -41 -7 0 -41 11 -75 25 -34 14 -63 23 -65 21 -3 -3 30 -18 107 -48 20 -7
22 -11 10 -18 -9 -6 -10 -10 -3 -10 6 0 15 5 18 10 4 6 22 8 43 5 20 -4 51 -9
67 -11 23 -4 26 -3 15 5 -8 6 -30 11 -48 11 -23 0 -32 4 -29 13 2 6 10 11 18
10 12 -2 128 -29 137 -32 4 -2 -34 -72 -87 -160 -28 -46 -51 -91 -51 -99 0 -8
12 8 28 35 15 28 49 87 76 132 l50 83 40 -6 c22 -4 42 -9 44 -11 3 -2 1 -21
-3 -42 l-7 -38 -18 23 c-29 36 -35 25 -6 -12 14 -19 26 -44 26 -56 0 -15 5
-20 14 -17 19 7 50 -28 42 -48 -3 -8 -11 -14 -17 -13 -6 2 -14 -4 -16 -12 -4
-13 -3 -13 6 0 6 8 11 10 11 4 0 -14 -39 -41 -101 -70 l-47 -22 2 51 c1 42 -2
52 -17 53 -12 1 -13 0 -2 -3 31 -9 11 -97 -25 -108 -25 -8 -75 2 -93 18 -45
41 -70 60 -57 43 13 -17 11 -22 -24 -52 -64 -55 -173 -115 -239 -130 l-62 -14
58 6 c66 6 128 25 130 39 1 6 27 26 57 47 30 20 65 46 77 57 l21 20 28 -21
c18 -15 42 -22 73 -22 31 -1 48 -6 53 -16 6 -13 7 -13 7 1 1 14 99 64 108 55
3 -2 -10 -20 -26 -39 -44 -50 -38 -57 7 -9 58 63 87 99 90 114 7 26 18 28 41
7 16 -15 20 -24 12 -32 -15 -15 -14 -54 1 -63 8 -5 9 -2 4 11 -4 12 2 32 19
57 30 45 45 49 45 10 0 -20 -7 -33 -25 -42 -14 -7 -23 -15 -21 -18 5 -5 116
67 116 75 0 3 -11 -2 -25 -11 -33 -22 -35 -21 -34 17 0 28 11 41 80 97 44 36
87 69 95 73 8 4 14 13 14 18 0 6 -14 0 -31 -13 -60 -45 -81 -56 -100 -51 -12
4 -19 14 -19 29 0 54 28 91 128 173 56 44 104 86 108 93 4 6 -30 -19 -75 -57
-45 -37 -84 -65 -87 -62 -3 2 12 33 33 67 21 34 43 71 49 81 18 31 27 36 21
12 -3 -13 -1 -23 4 -23 5 0 9 20 9 43 0 24 3 47 7 51 9 8 32 76 26 76 -2 0
-10 -14 -17 -32z m-243 -225 c-23 -18 -33 -16 -34 5 0 10 -3 12 -6 4 -2 -6 -9
-9 -15 -6 -6 4 -1 12 13 19 17 10 27 10 41 1 17 -10 17 -12 1 -23z m-275 -86
c5 -23 -10 -21 -26 4 -12 18 -11 20 5 17 10 -2 19 -11 21 -21z m306 -78 c-15
-43 -7 -69 22 -69 23 0 16 -16 -20 -44 l-35 -26 -4 32 c-3 30 -4 29 -5 -8 -2
-29 -9 -46 -27 -62 l-25 -22 -24 21 c-15 13 -22 28 -19 38 4 14 3 14 -6 1 -8
-12 -13 -11 -34 8 -13 12 -27 20 -30 17 -4 -3 -4 -1 1 5 4 6 25 3 55 -8 34
-12 47 -22 48 -37 0 -11 9 14 20 55 23 91 35 115 63 128 33 17 35 15 20 -29z"/>
<path d="M3722 4240 c0 -14 2 -19 5 -12 2 6 2 18 0 25 -3 6 -5 1 -5 -13z"/>
<path d="M1361 4649 c-6 -18 -9 -34 -7 -36 2 -2 9 10 15 28 6 18 9 34 7 36 -2
2 -9 -10 -15 -28z"/>
<path d="M4120 4660 c-9 -6 -10 -10 -3 -10 6 0 15 5 18 10 8 12 4 12 -15 0z"/>
<path d="M4578 4608 c-54 -73 -63 -84 -177 -203 l-86 -90 83 80 c81 77 179
190 216 248 33 49 11 28 -36 -35z"/>
<path d="M3809 4643 c-13 -16 -12 -17 4 -4 9 7 17 15 17 17 0 8 -8 3 -21 -13z"/>
<path d="M4058 4604 c-55 -46 -71 -63 -33 -36 45 33 91 72 83 72 -3 0 -26 -16
-50 -36z"/>
<path d="M3764 4614 c-18 -14 -18 -15 4 -4 12 6 22 13 22 15 0 8 -5 6 -26 -11z"/>
<path d="M4756 4603 c2 -6 8 -30 14 -53 8 -29 8 -62 1 -113 -19 -137 -34 -284
-29 -298 2 -7 10 43 17 111 17 162 33 229 25 105 -11 -183 -76 -479 -164 -744
-23 -68 -39 -125 -37 -127 8 -8 107 305 141 446 40 165 62 296 71 420 3 47 8
96 11 110 4 19 2 22 -6 10 -7 -11 -10 0 -10 43 0 31 -4 57 -8 57 -5 0 -13 10
-18 23 -6 12 -9 17 -8 10z"/>
<path d="M3714 4584 c-18 -14 -18 -15 4 -4 12 6 22 13 22 15 0 8 -5 6 -26 -11z"/>
<path d="M1915 4565 c-33 -14 -73 -36 -90 -50 -21 -17 -2 -10 63 22 51 25 95
43 99 39 9 -8 -20 -29 -84 -61 -29 -14 -53 -27 -53 -30 0 -7 72 26 111 52 32
21 53 26 119 28 44 2 85 7 91 11 7 4 9 3 5 -4 -3 -6 -29 -18 -57 -27 -28 -9
-48 -19 -46 -21 2 -3 26 3 53 12 60 21 82 24 160 26 49 1 61 5 57 16 -6 13
-62 11 -115 -4 -10 -3 -18 -1 -18 4 0 8 -101 8 -175 1 -5 -1 -21 1 -35 4 -16
4 -47 -3 -85 -18z"/>
<path d="M3899 4553 l-34 -37 32 25 c26 20 50 49 40 49 -2 0 -19 -17 -38 -37z"/>
<path d="M1699 4511 c-41 -39 -83 -77 -94 -86 -19 -15 -18 -15 10 -2 17 8 35
12 42 10 14 -5 80 36 107 66 11 12 46 33 78 48 32 14 56 28 54 30 -2 3 -19 -3
-36 -12 -25 -13 -34 -14 -40 -5 -6 10 -10 9 -16 -1 -19 -29 -126 -119 -142
-119 -11 1 9 25 52 66 38 35 66 67 64 70 -3 3 -39 -27 -79 -65z"/>
<path d="M1615 4494 c-44 -42 -96 -84 -115 -95 -19 -10 -28 -18 -19 -19 19 0
74 39 147 105 43 39 83 87 70 85 -2 -1 -39 -35 -83 -76z"/>
<path d="M2045 4545 c-40 -19 -16 -19 26 0 19 8 27 14 19 14 -8 0 -28 -7 -45
-14z"/>
<path d="M2387 4553 c12 -2 24 -11 26 -19 3 -9 4 -8 3 3 -1 12 -10 18 -26 19
-21 1 -21 0 -3 -3z"/>
<path d="M3472 4546 c7 -8 15 -12 17 -11 5 6 -10 25 -20 25 -5 0 -4 -6 3 -14z"/>
<path d="M1550 4485 c-35 -35 -62 -67 -59 -69 3 -3 34 24 69 59 35 35 62 67
59 69 -3 3 -34 -24 -69 -59z"/>
<path d="M4293 4500 c-28 -28 -48 -50 -44 -50 4 0 29 23 56 50 64 65 55 64
-12 0z"/>
<path d="M1481 4469 c-61 -69 -64 -92 -4 -26 36 39 69 87 61 87 -2 0 -28 -27
-57 -61z"/>
<path d="M3128 4503 c7 -3 16 -2 19 1 4 3 -2 6 -13 5 -11 0 -14 -3 -6 -6z"/>
<path d="M4060 4435 c-41 -41 -72 -75 -69 -75 2 0 38 34 79 75 41 41 72 75 69
75 -2 0 -38 -34 -79 -75z"/>
<path d="M3215 4490 c33 -4 78 -8 100 -8 l40 0 -40 9 c-22 4 -67 7 -100 7
l-60 -1 60 -7z"/>
<path d="M3061 4453 c-10 -26 -10 -27 4 -9 8 11 15 23 15 28 0 15 -7 8 -19
-19z"/>
<path d="M3578 4473 c6 -2 18 -2 25 0 6 3 1 5 -13 5 -14 0 -19 -2 -12 -5z"/>
<path d="M2991 4443 c-1 -6 -4 -20 -7 -30 -5 -17 -5 -17 6 0 6 10 9 23 6 30
-3 9 -5 9 -5 0z"/>
<path d="M4209 4423 c-13 -16 -12 -17 4 -4 16 13 21 21 13 21 -2 0 -10 -8 -17
-17z"/>
<path d="M4495 4361 c-41 -57 -282 -306 -345 -355 -24 -18 -19 -16 15 6 66 44
245 224 319 321 32 42 57 79 55 81 -2 2 -22 -22 -44 -53z"/>
<path d="M4169 4383 c-13 -16 -12 -17 4 -4 16 13 21 21 13 21 -2 0 -10 -8 -17
-17z"/>
<path d="M1302 4360 c0 -14 2 -19 5 -12 2 6 2 18 0 25 -3 6 -5 1 -5 -13z"/>
<path d="M1720 4366 c-30 -7 -80 -23 -110 -35 -53 -20 -47 -22 30 -6 32 7 30
5 -16 -19 -51 -26 -97 -66 -77 -66 6 0 41 14 78 32 64 29 75 31 189 32 118 1
123 0 185 -32 64 -34 85 -36 61 -7 -21 26 -64 44 -147 64 l-77 18 42 6 c60 10
178 -32 214 -77 10 -11 18 -16 18 -9 0 17 -26 41 -70 63 -21 11 -40 24 -42 30
-5 17 -213 21 -278 6z m68 -13 c-10 -2 -28 -2 -40 0 -13 2 -5 4 17 4 22 1 32
-1 23 -4z m237 -73 c3 -6 -1 -7 -9 -4 -18 7 -21 14 -7 14 6 0 13 -4 16 -10z"/>
<path d="M4109 4333 l-34 -38 38 34 c20 19 37 36 37 38 0 8 -8 0 -41 -34z"/>
<path d="M2936 4321 c-23 -43 -20 -52 5 -12 11 18 18 35 15 38 -2 3 -12 -9
-20 -26z"/>
<path d="M2977 4332 c6 -4 15 -39 21 -77 l9 -70 2 52 c1 58 -12 103 -31 103
-10 0 -10 -2 -1 -8z"/>
<path d="M1285 4300 c-4 -17 -5 -34 -2 -36 2 -3 7 10 11 27 8 42 0 50 -9 9z"/>
<path d="M4610 4310 c-6 -11 -8 -20 -6 -20 3 0 10 9 16 20 6 11 8 20 6 20 -3
0 -10 -9 -16 -20z"/>
<path d="M4296 4311 c-3 -5 -49 -37 -101 -71 -52 -35 -95 -65 -95 -67 0 -5 10
1 107 65 74 49 115 82 100 82 -3 0 -8 -4 -11 -9z"/>
<path d="M3290 4258 c-54 -39 -57 -40 -120 -35 l-65 5 45 -13 c25 -7 40 -13
34 -14 -5 -1 -19 -8 -30 -16 -17 -14 -16 -14 13 0 18 8 49 16 70 16 21 1 30 3
20 6 -15 4 -8 12 31 39 28 18 53 38 57 44 9 14 6 13 -55 -32z"/>
<path d="M4580 4260 c-6 -11 -8 -20 -6 -20 3 0 10 9 16 20 6 11 8 20 6 20 -3
0 -10 -9 -16 -20z"/>
<path d="M1271 4234 c0 -11 3 -14 6 -6 3 7 2 16 -1 19 -3 4 -6 -2 -5 -13z"/>
<path d="M3045 4240 c11 -5 29 -9 40 -9 l20 0 -20 9 c-11 5 -29 9 -40 9 l-20
0 20 -9z"/>
<path d="M4549 4213 c-29 -35 -41 -53 -36 -53 2 0 17 16 31 35 28 36 31 49 5
18z"/>
<path d="M2891 4204 c0 -11 3 -14 6 -6 3 7 2 16 -1 19 -3 4 -6 -2 -5 -13z"/>
<path d="M1261 4194 c0 -11 3 -14 6 -6 3 7 2 16 -1 19 -3 4 -6 -2 -5 -13z"/>
<path d="M1231 4174 c0 -11 3 -14 6 -6 3 7 2 16 -1 19 -3 4 -6 -2 -5 -13z"/>
<path d="M2797 4138 c8 -57 13 -61 13 -10 0 22 -4 43 -9 46 -5 4 -7 -12 -4
-36z"/>
<path d="M2902 4160 c0 -14 2 -19 5 -12 2 6 2 18 0 25 -3 6 -5 1 -5 -13z"/>
<path d="M2990 4168 c0 -14 19 -22 118 -48 32 -8 42 -15 38 -26 -4 -11 -2 -12
14 -4 12 7 21 7 25 0 3 -5 11 -10 18 -10 6 0 3 6 -6 13 -15 11 -10 16 38 46
30 19 53 36 51 38 -2 2 -28 -12 -57 -32 -36 -24 -61 -34 -74 -30 -11 4 -45 13
-75 22 -30 8 -63 22 -72 30 -16 14 -18 14 -18 1z"/>
<path d="M1241 4129 c-7 -22 -11 -43 -8 -45 2 -2 9 14 16 37 7 22 11 43 8 45
-2 2 -9 -14 -16 -37z"/>
<path d="M1542 4158 c3 -7 -2 -19 -11 -26 -13 -10 -11 -10 12 -1 37 16 47 2
17 -23 -23 -18 -22 -18 12 2 28 16 46 19 72 14 32 -6 35 -8 25 -28 -9 -20 -9
-20 5 -3 21 26 82 20 79 -8 -2 -18 -1 -18 9 3 8 16 20 22 43 22 18 0 46 3 63
6 24 5 31 2 35 -12 4 -16 5 -15 6 4 0 12 5 22 9 22 5 0 17 7 28 15 17 13 15
14 -26 10 -25 -3 -108 -7 -184 -9 -112 -4 -145 -2 -169 10 -23 12 -28 13 -25
2z m211 -35 c-7 -2 -21 -2 -30 0 -10 3 -4 5 12 5 17 0 24 -2 18 -5z"/>
<path d="M4446 4092 c-49 -57 -49 -57 -7 -17 36 34 69 75 59 75 -2 0 -25 -26
-52 -58z"/>
<path d="M1620 4105 c-7 -9 -11 -18 -8 -20 3 -3 11 1 18 10 7 9 11 18 8 20 -3
3 -11 -1 -18 -10z"/>
<path d="M2911 4104 c0 -11 3 -14 6 -6 3 7 2 16 -1 19 -3 4 -6 -2 -5 -13z"/>
<path d="M3824 4098 l-19 -23 23 19 c21 18 27 26 19 26 -2 0 -12 -10 -23 -22z"/>
<path d="M1811 4064 c0 -11 3 -14 6 -6 3 7 2 16 -1 19 -3 4 -6 -2 -5 -13z"/>
<path d="M4461 4014 c-81 -112 -317 -334 -355 -334 -9 0 -16 -4 -16 -8 0 -5
-27 -26 -60 -47 -32 -21 -57 -42 -55 -46 10 -15 -106 -94 -119 -82 -3 3 -6 1
-6 -5 0 -15 23 -15 38 0 6 6 14 9 17 7 3 -3 -36 -47 -85 -98 -50 -52 -90 -97
-90 -101 0 -5 38 33 85 83 161 174 218 227 299 284 44 31 123 97 175 147 95
92 217 233 209 242 -3 2 -19 -17 -37 -42z"/>
<path d="M2800 4010 c-62 -33 -53 -40 13 -11 40 19 73 24 125 22 16 -1 22 -7
22 -24 0 -28 -39 -71 -107 -117 -28 -19 -59 -48 -68 -63 -10 -16 -23 -75 -30
-135 -13 -101 -15 -108 -45 -134 -18 -15 -49 -31 -69 -36 -24 -7 -29 -10 -14
-11 33 -2 65 14 99 48 29 28 33 39 39 113 12 135 20 151 105 216 85 65 123
120 101 146 -22 27 -106 19 -171 -14z"/>
<path d="M3765 3988 c-22 -29 -59 -74 -82 -101 -24 -26 -43 -53 -43 -60 0 -6
8 0 17 13 10 14 44 57 76 95 54 64 83 105 74 105 -1 0 -21 -23 -42 -52z"/>
<path d="M2663 3975 c0 -27 2 -38 4 -22 2 15 2 37 0 50 -2 12 -4 0 -4 -28z"/>
<path d="M3134 3988 l-29 -33 33 29 c17 17 32 31 32 33 0 8 -8 1 -36 -29z"/>
<path d="M4078 3964 c-38 -20 -36 -28 2 -9 17 9 30 18 30 20 0 7 -1 6 -32 -11z"/>
<path d="M4295 3938 l-40 -43 43 40 c39 36 47 45 39 45 -2 0 -21 -19 -42 -42z"/>
<path d="M4667 3910 c-9 -61 -52 -239 -69 -285 -43 -116 -166 -380 -174 -372
-3 3 3 22 14 44 27 52 52 113 47 113 -3 0 -19 -33 -38 -73 -51 -109 -208 -366
-254 -415 -7 -7 -13 -17 -13 -21 0 -5 -10 -19 -22 -33 -13 -13 -42 -50 -66
-81 -34 -45 -52 -60 -90 -72 -33 -11 -38 -14 -14 -10 29 4 31 2 23 -13 -5 -10
-64 -75 -130 -146 -67 -70 -121 -133 -121 -139 1 -7 18 8 38 32 20 25 75 84
122 132 181 184 219 227 239 270 12 24 55 85 97 134 41 50 100 132 130 183 75
124 185 357 223 470 34 103 74 284 69 316 -2 12 -7 -4 -11 -34z m-262 -702
c-23 -44 -125 -198 -132 -198 -3 0 5 15 16 33 12 17 45 71 73 119 50 85 77
114 43 46z m-275 -407 c-5 -11 -15 -23 -21 -27 -6 -3 -3 5 6 20 20 30 30 35
15 7z"/>
<path d="M2672 3890 c0 -19 2 -27 5 -17 2 9 2 25 0 35 -3 9 -5 1 -5 -18z"/>
<path d="M3401 3860 c-29 -33 -51 -60 -49 -60 2 0 29 27 61 60 32 33 54 60 49
60 -5 0 -32 -27 -61 -60z"/>
<path d="M3877 3844 c-109 -76 -135 -100 -43 -42 69 44 170 118 160 117 -5 0
-57 -34 -117 -75z"/>
<path d="M3201 3874 c18 -34 91 -96 118 -100 3 0 28 -7 55 -14 l49 -13 -29
-24 c-16 -12 -34 -23 -41 -23 -6 0 -14 -4 -18 -10 -10 -17 52 10 71 31 11 12
32 20 58 20 30 2 34 3 14 6 -32 5 -35 15 -13 33 9 7 25 27 37 44 11 17 1 9
-24 -18 -41 -45 -46 -48 -78 -41 -19 4 -62 20 -96 35 -55 25 -73 40 -112 96
-7 11 -3 0 9 -22z"/>
<path d="M2620 3822 l5 -77 3 69 c2 38 -1 73 -5 77 -4 4 -6 -27 -3 -69z"/>
<path d="M3755 3842 c-33 -31 -85 -79 -115 -106 -60 -53 -80 -81 -79 -111 1
-12 4 -8 10 12 6 21 38 58 97 111 141 127 156 141 151 146 -2 3 -31 -21 -64
-52z"/>
<path d="M4197 3866 c-62 -43 -73 -56 -22 -26 36 21 86 61 75 59 -3 0 -27 -15
-53 -33z"/>
<path d="M3125 3848 c-22 -17 -62 -41 -90 -54 -27 -13 -44 -24 -37 -24 17 0
89 37 132 69 19 14 37 26 39 28 2 2 2 5 0 7 -2 3 -22 -9 -44 -26z"/>
<path d="M3208 3810 c11 -19 28 -57 38 -85 9 -27 22 -56 27 -63 17 -22 -1 -25
-48 -8 -27 11 -59 34 -80 59 l-36 42 18 -37 c18 -38 97 -88 137 -88 17 0 18
-6 13 -67 -3 -42 -2 -56 3 -38 4 17 8 46 9 66 1 34 3 37 41 43 22 3 40 10 40
15 0 5 -14 4 -31 -2 -29 -11 -33 -10 -48 12 -8 14 -28 54 -43 90 -15 36 -35
72 -44 81 -11 11 -10 5 4 -20z"/>
<path d="M4094 3768 l-19 -23 23 19 c12 11 22 21 22 23 0 8 -8 2 -26 -19z"/>
<path d="M2550 3770 c-1 -3 -3 -27 -5 -55 l-4 -50 10 40 c8 32 7 85 -1 65z"/>
<path d="M3060 3738 c-19 -16 -26 -26 -15 -20 18 9 64 53 54 52 -2 -1 -20 -15
-39 -32z"/>
<path d="M4022 3715 c-52 -40 -192 -119 -199 -111 -7 7 -33 -19 -33 -33 0 -6
-33 -46 -74 -89 -67 -72 -107 -128 -106 -149 1 -4 9 6 18 23 9 18 46 64 82
103 36 40 71 82 78 94 8 12 57 46 110 75 54 29 115 68 137 87 51 44 43 44 -13
0z"/>
<path d="M2950 3704 c8 -3 22 -8 30 -10 10 -4 5 -11 -18 -26 -17 -11 -32 -22
-32 -25 0 -5 14 3 51 29 22 14 40 17 90 13 56 -4 58 -3 19 4 -61 11 -159 21
-140 15z"/>
<path d="M3729 3688 c-12 -23 -117 -169 -129 -178 -11 -9 -40 -54 -40 -63 0
-12 156 196 176 234 8 16 12 29 10 29 -3 0 -11 -10 -17 -22z"/>
<path d="M3475 3663 c-10 -16 -29 -39 -42 -52 l-23 -24 -1 24 c0 20 -3 18 -13
-11 -7 -19 -20 -36 -29 -38 -9 -2 -14 -9 -11 -16 3 -7 -16 -34 -42 -60 -26
-25 -43 -46 -37 -46 6 0 51 44 100 98 83 90 132 152 120 152 -2 0 -13 -12 -22
-27z"/>
<path d="M4416 3644 c-63 -55 -210 -152 -304 -201 -48 -25 -76 -42 -62 -38 73
22 282 152 366 229 57 53 57 61 0 10z"/>
<path d="M2532 3630 c0 -19 2 -27 5 -17 2 9 2 25 0 35 -3 9 -5 1 -5 -18z"/>
<path d="M3446 3571 l-49 -56 53 52 c30 29 52 54 50 56 -3 3 -27 -21 -54 -52z"/>
<path d="M2493 3550 c0 -36 2 -50 4 -32 2 17 2 47 0 65 -2 17 -4 3 -4 -33z"/>
<path d="M3003 3596 c-5 -8 -29 -37 -53 -62 -25 -26 -36 -42 -24 -36 25 13 98
101 91 108 -3 3 -9 -1 -14 -10z"/>
<path d="M4166 3549 c-20 -18 -83 -63 -139 -100 -55 -38 -97 -69 -93 -69 17 0
276 185 276 196 0 7 -6 4 -44 -27z"/>
<path d="M3024 3473 c-15 -20 -23 -33 -16 -29 13 8 56 66 49 66 -3 0 -17 -17
-33 -37z"/>
<path d="M4389 3473 l-24 -28 28 24 c25 23 32 31 24 31 -2 0 -14 -12 -28 -27z"/>
<path d="M4255 3480 c-8 -14 -128 -109 -200 -159 -32 -23 -53 -41 -47 -41 23
0 281 208 260 210 -4 0 -10 -5 -13 -10z"/>
<path d="M3595 3416 c-33 -35 -79 -71 -102 -81 -51 -23 -50 -32 1 -11 37 15
140 106 157 138 13 25 11 23 -56 -46z"/>
<path d="M2371 3454 c0 -12 -8 -38 -17 -59 -8 -20 -13 -39 -11 -41 8 -8 39 86
34 103 -4 15 -5 14 -6 -3z"/>
<path d="M2843 3463 c9 -2 23 -2 30 0 6 3 -1 5 -18 5 -16 0 -22 -2 -12 -5z"/>
<path d="M2958 3463 c6 -2 18 -2 25 0 6 3 1 5 -13 5 -14 0 -19 -2 -12 -5z"/>
<path d="M4566 3455 c-9 -26 -7 -32 5 -12 6 10 9 21 6 23 -2 3 -7 -2 -11 -11z"/>
<path d="M2482 3435 c0 -16 2 -22 5 -12 2 9 2 23 0 30 -3 6 -5 -1 -5 -18z"/>
<path d="M3389 3435 c-3 -21 -11 -31 -29 -36 -49 -13 -119 -9 -164 11 -58 24
-61 16 -3 -10 46 -21 130 -26 173 -10 26 10 27 10 21 -22 -3 -18 -16 -59 -30
-90 -25 -56 -27 -58 -59 -53 -29 4 -30 4 -8 -4 37 -13 60 -13 60 2 0 6 11 39
25 72 13 33 25 71 25 83 0 13 8 31 18 40 9 10 13 14 8 10 -17 -13 -24 -9 -28
15 -4 19 -5 18 -9 -8z"/>
<path d="M4334 3428 l-19 -23 23 19 c21 18 27 26 19 26 -2 0 -12 -10 -23 -22z"/>
<path d="M2431 3414 c0 -11 3 -14 6 -6 3 7 2 16 -1 19 -3 4 -6 -2 -5 -13z"/>
<path d="M3080 3388 c-17 -24 -49 -58 -72 -75 l-41 -33 47 0 c25 0 46 -2 46
-5 0 -4 -7 -20 -16 -36 -8 -17 -14 -33 -11 -35 2 -2 12 14 22 36 13 29 27 43
49 49 23 7 14 8 -34 4 l-65 -6 36 39 c38 41 84 104 76 104 -3 0 -19 -19 -37
-42z"/>
<path d="M4220 3349 c-105 -73 -129 -92 -110 -83 29 14 189 124 195 134 9 14
9 15 -85 -51z"/>
<path d="M2291 3367 c0 -16 -10 -65 -22 -109 -11 -44 -18 -82 -16 -85 8 -8 49
175 44 198 -4 21 -4 21 -6 -4z"/>
<path d="M2433 3270 c0 -41 2 -58 4 -37 2 20 2 54 0 75 -2 20 -4 3 -4 -38z"/>
<path d="M3867 3286 c-109 -85 -137 -116 -136 -150 l1 -31 7 31 c11 45 16 50
95 108 60 45 119 98 105 95 -2 0 -35 -25 -72 -53z"/>
<path d="M3645 3300 c-10 -11 -16 -22 -14 -24 2 -2 12 7 22 20 22 29 17 32 -8
4z"/>
<path d="M4259 3253 c-35 -37 -46 -51 -24 -32 72 63 98 89 94 94 -3 2 -34 -26
-70 -62z"/>
<path d="M930 3300 c0 -5 3 -10 8 -10 4 0 23 -15 42 -33 19 -19 38 -34 42 -36
19 -5 68 -37 68 -44 0 -5 4 -6 9 -3 5 3 25 -1 45 -9 41 -17 46 -38 17 -69 -32
-35 -30 -59 6 -76 38 -18 39 -22 14 -58 -20 -27 -24 -42 -22 -76 1 -16 7 -18
41 -13 46 6 48 2 19 -29 -14 -15 -28 -54 -39 -106 -10 -46 -18 -75 -19 -66 -1
9 -6 20 -13 24 -8 5 -9 2 -4 -12 8 -22 36 -227 31 -232 -1 -2 8 -31 21 -65 14
-34 29 -93 35 -131 12 -87 28 -107 73 -95 19 5 45 5 66 -1 60 -17 164 -12 227
11 32 12 63 25 68 29 10 7 61 24 204 70 36 11 84 20 108 20 45 0 136 30 169
55 19 15 19 15 -1 8 -11 -3 -24 -9 -30 -13 -17 -12 -113 -40 -132 -39 -10 0
-3 6 17 14 63 24 13 16 -58 -10 -78 -28 -106 -32 -50 -7 23 10 58 43 91 84 58
74 103 148 89 148 -4 0 -19 -19 -32 -42 -30 -54 -91 -138 -116 -159 -27 -22
-81 -42 -93 -34 -6 3 -11 4 -11 0 0 -3 10 -10 23 -16 l22 -10 -23 5 c-13 2
-39 -2 -57 -10 -48 -20 -50 -18 -20 19 72 88 133 178 158 230 40 84 24 69 -22
-20 -40 -80 -158 -236 -186 -247 -21 -8 -19 -3 21 56 19 29 25 40 12 23 -13
-16 -38 -44 -55 -62 -21 -20 -28 -33 -20 -36 6 -3 -7 -6 -31 -6 l-42 -1 27 31
c16 17 36 45 46 62 18 31 18 31 0 7 -10 -14 -35 -44 -56 -67 l-38 -42 38 -3
c38 -3 37 -4 -31 -26 -68 -22 -156 -27 -206 -13 -40 12 78 34 148 27 54 -5 55
-5 17 5 -22 6 -72 8 -111 5 -68 -5 -71 -5 -85 20 -7 14 -30 34 -49 44 -47 24
-53 32 -85 115 -54 142 -45 363 20 460 32 50 75 161 75 197 0 10 -6 18 -14 18
-7 0 -19 7 -26 16 -8 8 -28 21 -47 29 -21 9 -33 21 -33 34 0 10 -6 21 -12 23
-7 3 -12 21 -12 44 1 34 0 35 -3 6 -3 -25 -8 -32 -19 -28 -9 3 -22 6 -30 6 -8
0 -14 10 -14 23 0 16 -3 18 -9 8 -14 -22 -33 -2 -26 28 6 25 6 25 -9 6 -18
-25 -31 -14 -16 14 7 14 7 21 0 21 -5 0 -10 -3 -10 -7 0 -5 -4 -15 -10 -23 -7
-12 -16 -9 -49 18 -23 18 -41 28 -41 22z m305 -226 c29 -19 32 -39 9 -48 -24
-9 -38 -7 -58 7 -15 11 -17 17 -7 35 14 26 24 27 56 6z m51 -79 c-9 -20 -16
-39 -17 -43 -10 -48 -50 -79 -84 -66 -35 14 4 86 70 125 42 26 47 24 31 -16z
m37 -760 c7 0 12 -4 12 -10 0 -5 4 -16 9 -23 10 -17 8 -19 -36 -27 -43 -8 -54
6 -65 82 l-6 48 37 -35 c20 -19 42 -35 49 -35z"/>
<path d="M2938 3293 c7 -3 16 -2 19 1 4 3 -2 6 -13 5 -11 0 -14 -3 -6 -6z"/>
<path d="M2897 3261 c-4 -17 -3 -21 5 -13 5 5 8 16 6 23 -3 8 -7 3 -11 -10z"/>
<path d="M3596 3251 c-9 -10 -35 -26 -56 -36 -22 -10 -38 -20 -36 -22 7 -7 80
34 100 56 11 12 17 21 14 21 -3 0 -12 -8 -22 -19z"/>
<path d="M3649 3253 c-13 -16 -12 -17 4 -4 16 13 21 21 13 21 -2 0 -10 -8 -17
-17z"/>
<path d="M3980 3228 c-13 -18 -49 -62 -81 -98 -53 -61 -79 -99 -79 -116 0 -4
13 12 29 37 16 24 55 73 86 109 52 59 81 100 72 100 -2 0 -14 -15 -27 -32z"/>
<path d="M3385 3235 c-16 -8 -23 -14 -14 -15 8 0 24 7 35 15 23 18 18 18 -21
0z"/>
<path d="M2403 3165 c0 -38 2 -53 4 -32 2 20 2 52 0 70 -2 17 -4 1 -4 -38z"/>
<path d="M3599 3213 c-13 -16 -12 -17 4 -4 16 13 21 21 13 21 -2 0 -10 -8 -17
-17z"/>
<path d="M1266 3184 c-4 -14 -5 -28 -3 -31 3 -2 8 8 11 23 4 14 5 28 3 31 -3
2 -8 -8 -11 -23z"/>
<path d="M2188 3195 c-3 -11 -9 -29 -13 -40 -3 -11 1 -7 10 8 9 16 15 33 12
40 -2 6 -6 3 -9 -8z"/>
<path d="M4145 3168 c-45 -44 -84 -79 -147 -131 -36 -30 -59 -58 -63 -76 -5
-24 -19 -34 -83 -64 -42 -20 -72 -36 -65 -37 17 0 173 77 195 97 20 18 23 33
7 33 -5 0 -8 -4 -4 -9 3 -6 -3 -15 -14 -20 -69 -37 -15 29 107 129 100 84 127
112 105 109 -5 -1 -21 -14 -38 -31z"/>
<path d="M1215 3179 c-4 -6 -5 -12 -2 -15 2 -3 7 2 10 11 7 17 1 20 -8 4z"/>
<path d="M2131 3168 c-1 -23 -14 -79 -33 -148 -3 -8 -3 -11 0 -6 2 4 9 2 14
-5 8 -11 9 -10 4 3 -3 10 2 43 10 75 8 32 13 69 11 83 l-4 25 -2 -27z"/>
<path d="M3130 3159 c-13 -30 -15 -31 -59 -24 -25 4 -52 12 -58 17 -9 7 -13 7
-13 0 0 -11 12 -16 68 -27 38 -8 40 -18 7 -50 -13 -14 -20 -25 -15 -25 11 0
50 40 50 52 0 4 7 8 15 8 9 0 12 6 9 15 -4 8 1 26 10 40 9 14 12 25 7 25 -5 0
-14 -14 -21 -31z"/>
<path d="M2421 3164 c0 -11 3 -14 6 -6 3 7 2 16 -1 19 -3 4 -6 -2 -5 -13z"/>
<path d="M3623 3137 c-68 -56 -78 -68 -23 -29 71 51 96 72 85 71 -5 0 -33 -19
-62 -42z"/>
<path d="M1412 3140 c0 -14 2 -19 5 -12 2 6 2 18 0 25 -3 6 -5 1 -5 -13z"/>
<path d="M2241 3144 c0 -11 3 -14 6 -6 3 7 2 16 -1 19 -3 4 -6 -2 -5 -13z"/>
<path d="M1332 3125 c0 -16 2 -22 5 -12 2 9 2 23 0 30 -3 6 -5 -1 -5 -18z"/>
<path d="M2895 3088 l-50 -53 53 50 c48 46 57 55 49 55 -1 0 -25 -24 -52 -52z"/>
<path d="M3739 3097 c-19 -17 -44 -38 -55 -45 -10 -7 -5 -6 11 2 17 8 43 28
59 45 38 40 31 39 -15 -2z"/>
<path d="M1457 3085 c-9 -19 -15 -35 -12 -35 7 0 37 61 33 66 -3 2 -12 -12
-21 -31z"/>
<path d="M3275 3110 c17 -27 -132 -168 -192 -181 -18 -4 -6 -6 34 -7 34 0 71
-3 81 -6 12 -4 26 3 43 21 l24 28 -25 -21 c-21 -18 -33 -21 -69 -15 l-44 6 55
43 c31 23 68 61 84 83 18 26 33 39 43 35 9 -2 34 -12 56 -20 22 -8 59 -15 83
-16 23 0 42 -3 42 -7 0 -19 -55 -96 -92 -128 -24 -21 -34 -32 -23 -24 44 29
88 76 107 114 11 22 32 50 47 62 l26 23 -34 -16 c-43 -21 -132 -14 -189 15
-44 22 -67 27 -57 11z"/>
<path d="M2251 3094 c0 -11 3 -14 6 -6 3 7 2 16 -1 19 -3 4 -6 -2 -5 -13z"/>
<path d="M4208 3091 c-26 -37 -288 -237 -371 -284 -47 -26 -89 -52 -93 -58 -7
-12 92 42 154 83 23 16 46 27 50 24 5 -3 16 4 25 15 9 10 21 19 27 19 25 0 5
-33 -57 -96 l-68 -68 63 53 c70 59 86 83 77 111 -4 14 6 28 41 57 118 96 188
163 170 163 -3 0 -11 -8 -18 -19z"/>
<path d="M2145 3089 c-4 -6 -5 -12 -2 -15 2 -3 7 2 10 11 7 17 1 20 -8 4z"/>
<path d="M2392 3065 c0 -16 2 -22 5 -12 2 9 2 23 0 30 -3 6 -5 -1 -5 -18z"/>
<path d="M2001 3067 c0 -10 -10 -36 -21 -57 -11 -22 -18 -40 -15 -40 10 0 46
83 42 98 -4 15 -5 15 -6 -1z"/>
<path d="M1391 3039 c-6 -18 -9 -34 -7 -36 2 -2 9 10 15 28 6 18 9 34 7 36 -2
2 -9 -10 -15 -28z"/>
<path d="M1541 3054 c0 -11 3 -14 6 -6 3 7 2 16 -1 19 -3 4 -6 -2 -5 -13z"/>
<path d="M2208 2977 c-20 -50 -36 -93 -34 -95 5 -5 77 170 74 179 -2 4 -20
-34 -40 -84z"/>
<path d="M1758 3035 c-4 -16 -18 -47 -32 -68 -15 -21 -22 -36 -16 -32 15 9 12
-1 -12 -48 -20 -39 -22 -41 -28 -18 -4 20 -8 16 -19 -27 -7 -29 -17 -54 -22
-58 -5 -3 -9 -12 -9 -21 0 -26 26 2 63 70 49 91 89 192 85 213 -3 14 -6 11
-10 -11z"/>
<path d="M2311 3044 c0 -11 3 -14 6 -6 3 7 2 16 -1 19 -3 4 -6 -2 -5 -13z"/>
<path d="M1851 3038 c-1 -9 -10 -36 -20 -61 -10 -24 -16 -49 -12 -55 8 -14 45
104 37 121 -2 7 -5 5 -5 -5z"/>
<path d="M1932 3004 c-12 -24 -20 -44 -18 -44 7 0 47 72 44 80 -2 4 -13 -12
-26 -36z"/>
<path d="M2051 3041 c-1 -7 -19 -51 -40 -97 -22 -47 -37 -82 -32 -80 4 3 18
28 31 56 16 34 26 46 32 38 10 -16 11 -34 1 -24 -4 4 -20 -21 -35 -55 -16 -34
-27 -64 -24 -66 2 -2 9 10 16 27 10 24 15 28 22 18 6 -9 7 -5 3 11 -4 14 -3
21 3 18 5 -4 16 11 25 33 8 22 12 38 7 35 -14 -9 -22 33 -10 55 6 12 9 26 6
33 -3 8 -5 8 -5 -2z"/>
<path d="M1664 3005 c-6 -20 -7 -39 -2 -47 7 -10 8 -10 7 2 -1 8 1 28 6 43 11
40 1 42 -11 2z"/>
<path d="M3762 3001 c-19 -16 -54 -37 -79 -46 -24 -9 -42 -19 -40 -21 8 -8 92
34 131 65 21 17 35 31 30 31 -5 -1 -24 -14 -42 -29z"/>
<path d="M4199 3013 c-13 -16 -12 -17 4 -4 16 13 21 21 13 21 -2 0 -10 -8 -17
-17z"/>
<path d="M1521 2997 c-13 -21 -12 -21 5 -5 10 10 16 20 13 22 -3 3 -11 -5 -18
-17z"/>
<path d="M2301 3007 c-1 -11 7 -21 19 -24 24 -6 26 -55 6 -151 -8 -35 -11 -60
-6 -55 10 12 30 119 30 166 0 30 -4 40 -19 44 -11 3 -22 12 -24 22 -4 13 -5
13 -6 -2z"/>
<path d="M1336 2985 c-9 -26 -7 -32 5 -12 6 10 9 21 6 23 -2 3 -7 -2 -11 -11z"/>
<path d="M1364 2968 c-12 -38 -54 -99 -64 -93 -5 3 -7 -4 -5 -16 2 -12 0 -31
-6 -41 -8 -15 -8 -19 0 -14 6 4 21 26 33 49 22 40 23 41 26 15 4 -31 -41 -124
-92 -191 -41 -53 -35 -64 7 -15 l28 33 -16 -39 c-28 -70 -9 -49 55 61 35 59
66 110 70 113 12 10 28 80 19 86 -5 3 -9 -3 -9 -14 0 -18 -66 -154 -96 -197
-13 -18 -14 -18 -14 -1 0 9 18 48 40 85 40 67 48 87 31 77 -17 -11 -21 42 -5
79 8 20 13 39 10 42 -2 2 -7 -6 -12 -19z"/>
<path d="M1481 2974 c0 -11 3 -14 6 -6 3 7 2 16 -1 19 -3 4 -6 -2 -5 -13z"/>
<path d="M2072 2918 c-17 -39 -30 -73 -29 -75 2 -2 19 29 37 67 17 39 30 73
28 75 -2 2 -18 -28 -36 -67z"/>
<path d="M3811 2928 c-89 -61 -121 -88 -61 -49 19 12 59 36 87 52 50 29 70 46
62 53 -2 2 -42 -23 -88 -56z"/>
<path d="M4159 2963 l-24 -28 28 24 c25 23 32 31 24 31 -2 0 -14 -12 -28 -27z"/>
<path d="M1627 2963 c-4 -3 -7 -11 -7 -17 0 -6 5 -5 12 2 6 6 9 14 7 17 -3 3
-9 2 -12 -2z"/>
<path d="M1930 2936 c-5 -14 -15 -38 -22 -53 -6 -16 -10 -34 -9 -42 1 -7 -2
-11 -7 -7 -5 3 -9 0 -9 -7 0 -7 -3 -23 -7 -37 -11 -42 35 49 55 108 19 56 18
88 -1 38z"/>
<path d="M1316 2935 c-9 -26 -7 -32 5 -12 6 10 9 21 6 23 -2 3 -7 -2 -11 -11z"/>
<path d="M1551 2934 c0 -11 3 -14 6 -6 3 7 2 16 -1 19 -3 4 -6 -2 -5 -13z"/>
<path d="M3537 2900 c-21 -28 -36 -50 -33 -50 7 0 78 91 74 95 -2 3 -21 -18
-41 -45z"/>
<path d="M1647 2926 c-4 -10 -5 -21 -2 -24 9 -9 17 6 13 25 -3 17 -4 17 -11
-1z"/>
<path d="M1595 2890 c-24 -52 -36 -60 -29 -18 4 23 -1 17 -15 -21 -11 -29 -25
-59 -31 -66 -9 -11 -7 -12 12 -3 21 11 95 135 85 144 -2 2 -12 -14 -22 -36z"/>
<path d="M1775 2910 c-4 -11 -11 -18 -16 -15 -5 4 -9 -2 -9 -12 0 -11 -14 -41
-31 -68 -17 -27 -24 -43 -15 -36 9 7 16 10 16 5 0 -19 34 42 35 63 0 12 7 28
14 35 12 11 13 10 8 -4 -9 -25 0 -22 14 3 8 17 8 20 -1 14 -9 -5 -10 -1 -5 14
3 11 4 21 1 21 -2 0 -8 -9 -11 -20z"/>
<path d="M1843 2913 c-3 -10 -18 -48 -34 -85 -20 -49 -24 -65 -13 -61 8 3 13
8 10 10 -3 3 5 26 18 52 24 48 40 101 31 101 -3 0 -8 -8 -12 -17z"/>
<path d="M4099 2893 l-34 -38 38 34 c20 19 37 36 37 38 0 8 -8 0 -41 -34z"/>
<path d="M1408 2803 c-31 -62 -56 -113 -54 -113 14 0 124 218 114 225 -2 1
-29 -49 -60 -112z"/>
<path d="M2256 2895 c-9 -26 -7 -32 5 -12 6 10 9 21 6 23 -2 3 -7 -2 -11 -11z"/>
<path d="M3585 2868 c-27 -22 -69 -50 -93 -60 -24 -11 -41 -22 -39 -25 8 -8
79 32 141 81 33 25 55 46 50 46 -5 -1 -31 -19 -59 -42z"/>
<path d="M3164 2878 l-19 -23 25 20 c14 11 27 21 29 22 2 2 0 3 -6 3 -5 0 -18
-10 -29 -22z"/>
<path d="M3290 2843 l-45 -46 53 42 c28 24 52 45 52 47 0 12 -20 -2 -60 -43z"/>
<path d="M2990 2799 c-17 -33 -30 -64 -28 -68 2 -4 17 23 35 61 40 84 34 90
-7 7z"/>
<path d="M3680 2850 c-8 -5 -10 -10 -5 -10 6 0 17 5 25 10 8 5 11 10 5 10 -5
0 -17 -5 -25 -10z"/>
<path d="M2017 2822 c1 -8 3 -21 4 -30 0 -14 2 -13 9 3 12 27 12 37 1 31 -5
-4 -11 -3 -14 1 -2 5 -2 2 0 -5z"/>
<path d="M3479 2823 c-13 -16 -12 -17 4 -4 16 13 21 21 13 21 -2 0 -10 -8 -17
-17z"/>
<path d="M2167 2797 c-4 -15 -12 -27 -17 -27 -6 0 -10 -8 -11 -17 0 -10 -9
-36 -20 -58 -16 -33 -19 -35 -16 -13 2 15 0 25 -4 22 -5 -3 -9 -12 -9 -20 0
-19 -110 -197 -118 -190 -3 4 -18 -20 -33 -51 -15 -32 -44 -77 -64 -100 -20
-24 -30 -40 -21 -37 8 3 52 61 97 129 45 68 87 121 92 118 5 -3 5 -8 0 -12
-14 -10 -46 -64 -33 -56 22 13 97 139 119 198 12 32 28 72 37 88 8 17 13 36
11 42 -2 7 -7 0 -10 -16z m-88 -201 c-29 -50 -33 -45 -7 10 13 25 24 41 26 36
1 -5 -7 -26 -19 -46z"/>
<path d="M1580 2790 c-6 -11 -8 -20 -6 -20 3 0 10 9 16 20 6 11 8 20 6 20 -3
0 -10 -9 -16 -20z"/>
<path d="M3251 2751 c-19 -25 -27 -40 -17 -32 20 17 60 71 55 75 -2 2 -19 -18
-38 -43z"/>
<path d="M1661 2753 c-10 -26 -10 -27 4 -9 8 11 15 23 15 28 0 15 -7 8 -19
-19z"/>
<path d="M1723 2687 c-23 -45 -65 -110 -93 -145 -57 -70 -67 -91 -17 -35 58
66 167 247 155 258 -2 2 -22 -33 -45 -78z"/>
<path d="M1947 2735 c-24 -50 -20 -58 4 -12 11 22 19 41 17 43 -3 2 -12 -12
-21 -31z"/>
<path d="M2010 2768 c0 -3 -7 -22 -15 -42 -8 -20 -13 -36 -10 -36 8 0 36 73
30 78 -3 3 -5 3 -5 0z"/>
<path d="M2226 2755 c-9 -26 -7 -32 5 -12 6 10 9 21 6 23 -2 3 -7 -2 -11 -11z"/>
<path d="M2282 2745 c0 -16 2 -22 5 -12 2 9 2 23 0 30 -3 6 -5 -1 -5 -18z"/>
<path d="M3514 2741 c-34 -34 -93 -71 -113 -71 -9 0 -2 13 19 35 53 54 27 41
-40 -20 -58 -54 -70 -74 -21 -36 14 10 30 17 37 14 15 -5 46 10 94 46 30 22
43 25 95 23 33 -1 66 1 72 6 7 4 -17 6 -54 4 -58 -4 -65 -3 -60 12 9 23 4 20
-29 -13z"/>
<path d="M3695 2760 c-13 -5 -14 -9 -5 -9 8 0 24 4 35 9 13 5 14 9 5 9 -8 0
-24 -4 -35 -9z"/>
<path d="M1468 2703 c-23 -42 -34 -53 -36 -39 -3 15 -7 13 -23 -14 -11 -17
-17 -35 -15 -39 3 -4 -1 -17 -9 -27 -8 -10 -15 -14 -15 -8 0 5 6 16 13 23 8
10 9 12 0 7 -7 -4 -22 -21 -34 -39 l-23 -32 22 19 c28 25 28 15 -1 -32 -41
-65 -90 -157 -79 -147 6 6 29 44 52 85 23 41 53 86 65 100 32 35 132 200 121
200 -2 0 -19 -26 -38 -57z m-47 -76 c-10 -9 -11 -8 -5 6 3 10 9 15 12 12 3 -3
0 -11 -7 -18z"/>
<path d="M1557 2705 c-15 -30 -25 -55 -22 -55 7 0 57 101 53 106 -2 2 -16 -21
-31 -51z"/>
<path d="M1821 2687 c-18 -34 -60 -104 -93 -155 -33 -51 -58 -95 -55 -99 4 -3
9 2 13 11 3 9 10 14 14 11 5 -3 23 16 42 42 46 66 69 103 64 103 -3 0 -26 -32
-52 -70 -71 -106 -65 -76 9 42 68 110 100 168 95 173 -2 2 -18 -24 -37 -58z"/>
<path d="M2050 2728 c0 -3 -11 -31 -25 -62 -14 -31 -22 -56 -20 -56 8 0 56
113 50 118 -3 3 -5 3 -5 0z"/>
<path d="M1625 2690 c-9 -16 -13 -30 -11 -30 3 0 12 14 21 30 9 17 13 30 11
30 -3 0 -12 -13 -21 -30z"/>
<path d="M2016 2703 c-6 -14 -5 -15 5 -6 7 7 10 15 7 18 -3 3 -9 -2 -12 -12z"/>
<path d="M2293 2645 c0 -38 2 -53 4 -32 2 20 2 52 0 70 -2 17 -4 1 -4 -38z"/>
<path d="M3097 2643 c-21 -35 -36 -70 -33 -76 3 -8 5 -8 5 1 1 8 17 41 38 73
20 33 34 61 32 63 -2 2 -21 -25 -42 -61z"/>
<path d="M3868 2703 c6 -2 18 -2 25 0 6 3 1 5 -13 5 -14 0 -19 -2 -12 -5z"/>
<path d="M2197 2687 c-4 -10 -7 -28 -6 -40 0 -21 1 -21 10 2 5 14 8 32 7 40
-3 13 -5 13 -11 -2z"/>
<path d="M5177 2673 c-9 -9 -29 -18 -45 -19 -15 -1 -78 -25 -139 -53 -62 -28
-117 -51 -123 -51 -6 0 -28 -9 -50 -20 -22 -11 -51 -20 -66 -20 -15 0 -65 -13
-113 -29 -47 -16 -111 -32 -141 -36 -30 -4 -79 -16 -109 -27 -37 -14 -65 -18
-92 -14 -29 5 -50 1 -79 -14 -52 -27 -366 -130 -394 -130 -37 0 -169 -100
-204 -155 -14 -23 26 65 68 145 15 30 31 66 35 80 4 14 15 34 24 45 10 13 7
12 -12 -4 -15 -14 -27 -35 -27 -47 0 -13 -5 -26 -11 -30 -17 -10 -95 -180
-119 -259 -11 -38 -34 -94 -50 -124 -25 -49 -32 -55 -61 -55 -28 -1 -38 -8
-62 -44 -32 -47 -140 -138 -202 -169 -22 -12 -60 -24 -85 -28 -69 -11 -135
-44 -273 -139 -131 -90 -282 -168 -402 -208 -83 -27 -244 -31 -364 -9 -65 12
-80 19 -134 65 -33 28 -78 72 -100 98 -38 45 -39 49 -27 78 7 17 21 36 31 43
23 17 101 177 94 195 -2 7 -1 11 4 7 5 -3 15 12 22 32 6 21 30 69 52 106 22
37 43 85 48 105 4 20 16 62 27 92 39 107 80 250 71 250 -5 0 -9 -8 -9 -17 0
-15 -2 -16 -10 -3 -10 16 -8 20 -30 -60 -19 -70 -105 -279 -156 -382 -32 -64
-66 -112 -108 -155 -33 -35 -54 -63 -47 -63 11 0 11 -3 1 -15 -7 -8 -17 -15
-23 -15 -6 0 -20 -9 -32 -20 -26 -24 -66 -35 -59 -16 5 14 -23 43 -32 33 -3
-3 -1 -14 5 -25 21 -39 27 -34 -152 -124 -21 -11 -91 -30 -155 -44 -64 -13
-130 -29 -147 -34 -65 -20 -229 -51 -243 -45 -8 3 -20 1 -26 -4 -6 -5 -103
-23 -216 -41 -113 -17 -214 -34 -225 -37 -18 -5 -19 -4 -5 12 14 17 13 17 -7
7 -12 -7 -68 -12 -130 -13 -59 0 -126 -4 -148 -9 -29 -7 -9 -8 70 -4 114 5
132 -1 48 -16 -46 -9 -45 -9 17 -5 36 3 83 7 105 11 36 6 31 1 -60 -54 l-99
-59 -28 20 c-25 18 -33 20 -69 10 -37 -10 -41 -9 -55 13 -9 13 -13 28 -9 34 3
5 2 10 -3 10 -4 0 -16 16 -25 35 -9 19 -24 35 -33 35 -14 0 -15 -9 -9 -65 4
-41 3 -65 -3 -65 -6 0 -13 6 -15 13 -4 9 -6 9 -6 -1 -1 -7 10 -17 24 -22 14
-5 25 -14 25 -20 0 -19 40 -50 64 -50 21 0 25 -5 28 -37 2 -25 8 -39 19 -41 8
-1 66 27 128 63 63 36 115 65 118 65 2 0 -20 -30 -48 -67 -44 -57 -79 -118
-79 -137 0 -8 31 -36 41 -36 5 0 17 8 27 18 39 39 117 86 155 92 l39 8 -74
-72 c-177 -172 -241 -281 -178 -301 14 -4 35 10 77 52 33 32 122 103 198 158
77 55 187 135 245 179 l105 78 -151 -153 c-83 -85 -169 -177 -191 -204 -54
-67 -92 -140 -86 -164 10 -37 66 -38 78 -1 8 26 102 112 337 307 112 94 237
204 279 246 42 43 80 77 84 77 17 0 -98 -124 -342 -368 -252 -253 -376 -395
-389 -448 -16 -64 41 -77 79 -16 28 43 129 140 272 262 55 47 148 127 207 178
60 50 108 89 108 86 0 -6 -154 -174 -296 -324 -150 -159 -232 -337 -171 -374
16 -9 24 -4 55 34 50 60 195 203 235 232 18 12 -3 -15 -49 -64 -94 -101 -142
-185 -124 -217 17 -32 47 -26 74 17 30 46 91 105 273 260 145 125 207 168 92
65 -94 -85 -215 -211 -263 -275 -35 -46 -33 -83 5 -83 19 0 37 14 71 55 40 50
48 55 79 52 30 -3 46 7 145 90 61 51 162 141 225 200 63 59 146 130 185 157
40 27 114 82 165 122 l94 71 3 -36 c3 -32 -4 -46 -55 -109 -32 -40 -155 -171
-273 -292 -123 -125 -222 -235 -230 -254 -25 -61 21 -93 68 -48 15 14 63 47
107 74 44 27 92 57 107 67 16 10 28 14 28 8 0 -6 -5 -12 -10 -14 -6 -2 -44
-37 -85 -78 -56 -55 -75 -81 -75 -101 0 -48 28 -43 91 15 32 30 107 90 166
133 162 119 545 406 665 500 60 46 110 83 113 83 17 0 -268 -248 -490 -425
-82 -66 -192 -161 -243 -211 -82 -79 -93 -94 -90 -120 2 -23 9 -30 28 -32 54
-6 281 189 660 568 278 277 339 335 346 328 5 -6 -176 -220 -255 -301 -31 -32
-128 -125 -216 -205 -280 -258 -327 -306 -323 -333 7 -50 39 -34 158 79 63 60
156 142 205 182 110 90 216 183 312 272 141 133 95 74 -172 -217 -154 -167
-155 -169 -161 -190 -3 -11 -38 -53 -77 -93 -60 -61 -70 -75 -61 -90 22 -35
44 -24 125 60 174 179 443 447 447 443 5 -5 -57 -88 -211 -280 -140 -174 -210
-272 -204 -288 2 -6 8 -12 13 -14 17 -6 315 312 482 512 l33 40 -17 -35 c-29
-60 -66 -110 -81 -110 -11 0 -13 -7 -9 -24 4 -16 -6 -49 -29 -99 -40 -87 -46
-142 -15 -152 12 -4 20 -15 20 -30 0 -45 45 -42 74 5 9 17 21 30 27 30 5 0 9
8 9 18 1 9 8 28 16 42 17 28 17 25 -12 -81 -11 -41 -15 -72 -9 -85 4 -10 7
-22 7 -26 -2 -9 15 -10 46 -2 12 4 22 10 22 15 0 5 16 43 35 83 19 41 35 77
35 81 0 4 13 20 29 35 16 16 31 44 35 63 6 34 28 59 77 89 38 24 59 101 59
215 0 74 7 123 35 234 20 77 42 156 50 177 8 20 26 84 40 141 14 57 38 138 52
180 23 70 25 85 20 188 -4 62 -4 142 0 177 5 57 8 65 29 70 29 8 32 26 4 26
-28 0 -26 11 19 98 22 42 58 116 81 163 55 116 133 180 254 210 86 22 205 61
306 102 50 20 95 30 135 32 33 1 77 9 97 18 20 9 63 19 95 23 32 3 86 17 120
30 34 13 88 28 120 33 32 5 110 30 173 57 63 26 122 47 130 48 8 1 24 6 35 12
11 6 43 17 71 23 45 11 52 16 52 37 0 29 1 28 -21 7z m-3177 -782 c-11 -23
-23 -41 -26 -41 -6 0 -6 -1 21 52 11 21 21 36 23 34 2 -2 -6 -22 -18 -45z
m1486 -66 c-15 -61 -27 -74 -113 -125 -48 -29 -106 -68 -128 -85 -22 -18 -74
-51 -115 -75 -41 -24 -91 -55 -110 -70 -19 -15 -118 -68 -219 -118 -166 -83
-197 -95 -325 -124 -175 -40 -285 -43 -360 -9 -27 11 -47 24 -44 26 3 3 29 0
58 -6 88 -19 252 -7 345 25 125 43 270 119 385 202 132 95 158 108 267 137 76
19 100 31 175 87 47 36 94 79 104 95 27 47 45 65 67 65 15 0 18 -5 13 -25z
m-1571 -115 c-9 -16 -18 -30 -21 -30 -2 0 2 14 11 30 9 17 18 30 21 30 2 0 -2
-13 -11 -30z m1549 -153 c-1 -165 -2 -176 -33 -271 -17 -55 -39 -130 -48 -168
-9 -37 -20 -68 -25 -68 -12 0 -11 3 33 142 40 127 42 148 13 148 -11 0 -12 4
-4 19 17 33 11 56 -19 79 -23 17 -32 18 -43 9 -9 -7 -52 -73 -98 -147 -45 -74
-108 -166 -138 -205 -67 -85 -496 -515 -514 -515 -7 0 8 21 33 48 70 73 203
232 334 397 65 83 138 171 163 196 34 36 43 52 37 68 -12 38 -46 25 -118 -46
-42 -41 -71 -63 -74 -55 -3 6 -16 12 -29 12 -18 0 -82 -54 -242 -204 -120
-113 -259 -239 -310 -280 -132 -107 -340 -266 -349 -266 -15 0 124 134 212
204 91 73 198 178 255 250 32 42 46 78 35 95 -16 26 -47 7 -109 -68 -130 -155
-335 -340 -527 -473 -87 -61 -261 -168 -272 -168 -6 0 26 37 70 83 171 178
393 466 412 534 16 58 -24 125 -66 109 -10 -4 -6 6 11 26 36 45 50 74 43 92
-14 35 -46 14 -135 -88 -170 -193 -354 -370 -527 -505 -19 -15 -19 -15 -5 4 8
11 46 54 85 95 182 193 315 356 315 386 0 12 -7 25 -16 28 -27 10 -69 -21
-141 -106 -38 -46 -124 -137 -190 -203 -124 -124 -403 -372 -403 -358 0 11 69
91 288 331 233 257 284 317 356 415 61 82 67 112 26 112 -19 0 -41 -21 -98
-95 -152 -196 -293 -359 -393 -456 -70 -68 -350 -311 -376 -327 -20 -12 86
157 141 226 28 35 130 153 226 262 180 203 310 366 310 389 0 22 -28 39 -53
32 -25 -6 -57 -38 -218 -221 -111 -126 -398 -409 -406 -401 -5 5 53 74 182
216 208 230 278 316 330 404 21 36 24 49 15 65 -9 18 -6 23 29 41 22 11 65 29
96 41 31 11 55 23 53 25 -8 8 -166 -59 -239 -101 -42 -24 -98 -49 -125 -56
-27 -7 -57 -16 -67 -21 -14 -7 -24 -5 -38 11 -11 12 -28 21 -37 21 -19 0 -84
-50 -120 -92 -21 -24 -55 -40 -160 -74 -46 -14 -46 -13 -9 37 10 15 17 37 15
50 -7 55 -86 27 -215 -78 -49 -39 -54 -36 -18 11 25 33 33 80 15 91 -18 11
-10 25 15 25 71 0 503 78 664 121 41 10 86 19 100 19 25 -1 24 -2 -9 -20 -57
-31 -24 -23 74 19 50 21 109 44 131 51 55 17 138 60 131 67 -3 3 -12 1 -19 -5
-20 -17 -90 -45 -83 -33 4 5 26 20 51 32 35 18 47 20 59 10 11 -9 15 -9 19 1
4 10 6 10 6 0 1 -7 -19 -25 -44 -40 -25 -15 -45 -31 -45 -35 0 -4 10 -1 22 7
39 28 44 16 8 -16 -19 -17 -28 -27 -20 -23 27 14 60 48 60 62 0 7 4 13 10 13
10 0 32 -35 25 -42 -2 -2 -6 -20 -8 -39 -7 -61 -143 -245 -216 -291 -47 -29
-49 -38 -3 -14 40 20 121 110 178 195 l49 74 6 -49 c4 -34 7 -40 8 -19 2 27 3
28 11 9 14 -35 80 -134 89 -134 5 0 -11 30 -35 66 -59 87 -56 101 7 31 49 -55
159 -147 175 -147 5 0 -7 13 -26 30 -22 18 -29 29 -20 30 10 0 7 7 -10 20 -14
11 -20 20 -15 19 18 0 47 -27 40 -38 -4 -7 5 -11 22 -11 16 0 37 -6 48 -13 45
-31 164 -60 150 -37 -3 6 -18 10 -33 10 -15 0 -47 10 -72 22 -61 28 -29 36 54
13 78 -22 152 -16 349 30 157 37 319 102 454 181 39 23 169 108 287 188 119
80 220 146 224 146 4 0 7 -78 6 -173z m-1583 145 c-7 -12 -7 -23 0 -30 5 -7 6
-10 3 -7 -4 2 -15 -6 -25 -19 -11 -13 -39 -37 -63 -52 -26 -16 -42 -33 -39
-41 3 -7 0 -13 -7 -13 -6 0 -9 4 -6 9 4 5 1 11 -5 13 -6 2 11 18 38 35 52 34
103 83 86 83 -6 0 -16 -7 -23 -15 -7 -9 -15 -13 -18 -10 -7 6 48 65 60 65 5 0
4 -8 -1 -18z m-37 -114 c-4 -13 -14 -34 -22 -47 -15 -22 -16 -22 -23 -5 -6 15
-8 14 -8 -8 -1 -16 -5 -28 -11 -28 -5 0 -7 -7 -4 -15 4 -8 1 -15 -6 -15 -8 0
-9 10 -5 33 10 50 16 69 22 64 2 -3 16 6 30 19 32 30 36 30 27 2z m68 -251
c23 -21 33 -34 22 -30 -17 6 -17 5 -6 -10 8 -9 30 -21 50 -28 20 -6 55 -22 77
-35 32 -19 35 -24 18 -24 -12 0 -27 -2 -35 -5 -7 -3 -56 23 -109 58 -53 35
-103 66 -112 70 -9 3 -17 14 -17 24 0 10 -3 29 -6 43 -5 20 4 14 54 -34 34
-33 64 -58 66 -55 3 3 -24 34 -59 69 -36 36 -65 69 -65 75 1 5 19 -10 41 -35
21 -25 58 -62 81 -83z m-123 25 c1 -7 -3 -10 -9 -7 -5 3 -10 21 -9 38 1 31 1
31 9 7 4 -14 8 -31 9 -38z m96 -85 c22 -16 39 -31 38 -35 -1 -4 6 -15 14 -24
9 -10 12 -18 7 -18 -5 0 -36 28 -69 61 -62 63 -60 66 10 16z m-676 -64 c-36
-38 -97 -100 -135 -139 -63 -64 -243 -230 -304 -279 l-25 -20 21 25 c11 14 54
63 95 110 80 92 214 258 243 302 12 19 36 33 79 46 34 11 69 20 77 21 8 1 -15
-29 -51 -66z m2126 38 c-3 -6 -11 -11 -17 -11 -6 0 -6 6 2 15 14 17 26 13 15
-4z m-2445 -106 c0 -3 -30 -20 -67 -39 -38 -19 -64 -35 -60 -36 4 0 22 7 38
16 17 8 32 14 34 12 2 -2 -42 -42 -98 -90 -165 -139 -212 -177 -215 -173 -2 1
31 46 74 99 53 67 89 102 118 116 22 11 31 17 19 14 -13 -3 -23 -3 -23 0 0 15
37 46 55 47 11 0 40 8 65 19 49 20 60 22 60 15z m-190 -25 c0 -5 -5 -10 -11
-10 -5 0 -7 5 -4 10 3 6 8 10 11 10 2 0 4 -4 4 -10z m-60 -64 c-23 -23 -49
-37 -75 -41 l-40 -7 60 40 c75 50 102 54 55 8z m2521 -8 c-73 -116 -197 -284
-258 -350 -40 -43 -73 -75 -73 -72 0 3 60 83 133 177 72 95 150 196 172 225
44 59 57 68 26 20z m-106 -270 c-20 -67 -201 -306 -355 -468 l-71 -75 98 130
c53 72 136 185 184 252 105 148 131 182 142 182 5 1 5 -9 2 -21z m45 -175
c-17 -44 -37 -89 -45 -99 -11 -14 -10 -5 4 31 47 126 65 167 68 158 2 -5 -10
-46 -27 -90z m-1680 12 c-7 -8 -17 -15 -23 -15 -6 0 -2 7 9 15 25 19 30 19 14
0z m1841 -81 c1 -83 -19 -133 -66 -162 -33 -21 -37 -22 -30 -6 4 11 26 67 49
126 23 58 42 105 44 104 1 -2 3 -30 3 -62z m-1031 -88 c0 -2 -8 -10 -17 -17
-16 -13 -17 -12 -4 4 13 16 21 21 21 13z m780 -304 c0 -5 -9 -26 -20 -48 l-21
-39 6 40 c4 22 9 43 11 47 7 11 24 10 24 0z m-10 -106 c0 -3 -4 -8 -10 -11 -5
-3 -10 -1 -10 4 0 6 5 11 10 11 6 0 10 -2 10 -4z"/>
<path d="M1709 1392 c-36 -44 -40 -54 -9 -25 19 18 32 35 29 37 -3 3 -12 -2
-20 -12z"/>
<path d="M1330 2660 c-6 -11 -8 -20 -6 -20 3 0 10 9 16 20 6 11 8 20 6 20 -3
0 -10 -9 -16 -20z"/>
<path d="M1780 2660 c-6 -11 -8 -20 -6 -20 3 0 10 9 16 20 6 11 8 20 6 20 -3
0 -10 -9 -16 -20z"/>
<path d="M1935 2618 c-20 -35 -30 -56 -22 -48 17 18 71 110 64 110 -3 0 -21
-28 -42 -62z"/>
<path d="M3555 2665 c26 -21 82 -35 130 -34 36 1 34 2 -15 9 -30 4 -73 15 -95
24 -33 13 -36 13 -20 1z"/>
<path d="M1561 2632 c-11 -21 -36 -58 -55 -81 -41 -48 -47 -63 -14 -35 21 19
21 19 15 -1 -8 -23 48 37 65 70 5 11 -4 3 -22 -18 -39 -46 -52 -42 -17 5 27
37 60 98 52 98 -2 0 -13 -17 -24 -38z"/>
<path d="M3764 2635 c-46 -41 -137 -78 -177 -72 -15 2 -30 0 -33 -5 -13 -21
86 -6 142 22 60 30 138 89 118 90 -6 0 -28 -16 -50 -35z"/>
<path d="M1887 2609 c-16 -27 -26 -49 -24 -49 7 0 59 91 55 95 -2 2 -16 -18
-31 -46z"/>
<path d="M1970 2620 c-11 -22 -18 -40 -15 -40 2 0 14 18 25 40 11 22 18 40 15
40 -2 0 -14 -18 -25 -40z"/>
<path d="M3745 2650 c-16 -7 -17 -9 -3 -9 9 -1 20 4 23 9 7 11 7 11 -20 0z"/>
<path d="M1460 2630 c-6 -11 -8 -20 -6 -20 3 0 10 9 16 20 6 11 8 20 6 20 -3
0 -10 -9 -16 -20z"/>
<path d="M1590 2630 c-6 -11 -8 -20 -6 -20 3 0 10 9 16 20 6 11 8 20 6 20 -3
0 -10 -9 -16 -20z"/>
<path d="M1491 2591 c-18 -27 -39 -55 -47 -62 -8 -7 -20 -22 -26 -33 -11 -21
-10 -21 10 -3 25 23 105 138 99 143 -3 3 -19 -18 -36 -45z"/>
<path d="M1299 2613 c-13 -16 -12 -17 4 -4 9 7 17 15 17 17 0 8 -8 3 -21 -13z"/>
<path d="M3288 2623 c7 -3 16 -2 19 1 4 3 -2 6 -13 5 -11 0 -14 -3 -6 -6z"/>
<path d="M2142 2535 c-23 -47 -40 -85 -37 -85 3 0 18 26 34 58 23 44 30 51 31
33 0 -24 -48 -119 -79 -155 -12 -15 -13 -18 -2 -14 26 8 92 139 87 173 -2 17
1 38 6 48 5 10 8 20 6 22 -2 3 -23 -34 -46 -80z"/>
<path d="M1232 2558 c-12 -23 -21 -43 -19 -45 2 -1 14 15 26 38 13 22 21 42
19 44 -2 2 -13 -15 -26 -37z"/>
<path d="M1430 2579 c-7 -11 -10 -23 -7 -25 2 -2 9 7 15 21 14 30 7 33 -8 4z"/>
<path d="M1715 2554 c-9 -15 -12 -23 -6 -20 11 7 35 46 28 46 -3 0 -12 -12
-22 -26z"/>
<path d="M1969 2558 c-6 -13 -23 -43 -37 -68 -14 -25 -21 -40 -15 -35 15 14
76 125 69 125 -3 0 -11 -10 -17 -22z"/>
<path d="M3500 2535 c-35 -37 -60 -42 -81 -14 l-18 24 6 -23 c3 -13 12 -26 20
-29 21 -8 80 22 93 47 14 27 9 25 -20 -5z"/>
<path d="M1869 2523 c-46 -54 -103 -128 -86 -114 21 17 22 8 1 -27 -15 -26
-15 -26 1 -7 9 11 27 40 41 65 13 25 36 60 50 78 32 39 27 43 -7 5z"/>
<path d="M2191 2484 c-6 -37 -10 -68 -8 -71 3 -2 10 26 17 62 7 36 10 68 8 70
-3 3 -10 -25 -17 -61z"/>
<path d="M3293 2500 c0 -30 2 -43 4 -27 2 15 2 39 0 55 -2 15 -4 2 -4 -28z"/>
<path d="M1555 2490 c-9 -16 -13 -30 -11 -30 3 0 12 14 21 30 9 17 13 30 11
30 -3 0 -12 -13 -21 -30z"/>
<path d="M1804 2483 c-23 -31 -24 -34 -5 -18 22 19 46 55 38 55 -3 0 -17 -17
-33 -37z"/>
<path d="M1765 2470 c-9 -16 -13 -30 -11 -30 3 0 12 14 21 30 9 17 13 30 11
30 -3 0 -12 -13 -21 -30z"/>
<path d="M1651 2470 c-13 -11 -19 -20 -14 -20 6 0 18 9 28 20 23 25 17 25 -14
0z"/>
<path d="M3455 2412 c0 -26 -4 -56 -8 -67 -5 -11 -2 -9 7 5 16 27 21 77 8 97
-4 6 -7 -10 -7 -35z"/>
<path d="M3567 2453 c-4 -3 -24 -9 -44 -13 l-38 -8 36 -1 c22 -1 42 5 49 14
12 15 10 21 -3 8z"/>
<path d="M1370 2420 c-6 -11 -8 -20 -6 -20 3 0 10 9 16 20 6 11 8 20 6 20 -3
0 -10 -9 -16 -20z"/>
<path d="M1597 2405 c-9 -19 -15 -35 -12 -35 7 0 37 61 33 66 -3 2 -12 -12
-21 -31z"/>
<path d="M1715 2388 c-16 -24 -22 -38 -14 -31 15 12 53 73 46 73 -2 0 -17 -19
-32 -42z"/>
<path d="M3645 2392 c-14 -26 -29 -39 -50 -43 -28 -6 -29 -7 -4 -8 14 0 33 7
41 17 19 21 41 62 36 67 -2 2 -12 -13 -23 -33z"/>
<path d="M1601 2334 c-65 -90 -91 -107 -47 -31 14 24 26 48 26 53 0 5 -18 -22
-40 -61 -41 -74 -44 -90 -9 -59 30 26 146 184 136 184 -2 0 -31 -39 -66 -86z"/>
<path d="M1421 2367 c-8 -12 -21 -32 -29 -44 -8 -13 -12 -23 -9 -23 7 0 59 81
55 85 -2 2 -10 -6 -17 -18z"/>
<path d="M1476 2343 c-6 -14 -5 -15 5 -6 7 7 10 15 7 18 -3 3 -9 -2 -12 -12z"/>
<path d="M2056 2345 c-16 -12 -17 -15 -4 -15 8 0 21 7 28 15 16 19 1 19 -24 0z"/>
<path d="M1440 2288 c-15 -21 -17 -28 -6 -19 16 13 41 51 33 51 -2 0 -14 -15
-27 -32z"/>
<path d="M2018 2082 c-22 -60 -15 -67 7 -7 10 25 16 47 14 50 -3 2 -12 -17
-21 -43z"/>
<path d="M987 1382 c-19 -20 -23 -37 -7 -27 10 6 33 45 27 45 -2 0 -11 -8 -20
-18z"/>
<path d="M525 1309 c-4 -6 -5 -12 -2 -15 2 -3 7 2 10 11 7 17 1 20 -8 4z"/>
<path d="M148 1243 c7 -3 16 -2 19 1 4 3 -2 6 -13 5 -11 0 -14 -3 -6 -6z"/>
</g>
</svg>
